#!OML:ASF E:\Steps\Project 1\Capture day 1\Session 2\Subject.ASF
:FULLY-SPECIFIED
:DEGREES
570
root 3.50808 17.9829 7.66786 -157.009 -3.56365 177.581
lowerback -28.5715 -2.52301 -7.18404
upperback -1.07902 -1.51716 -0.394923
thorax 14.0595 -1.37726 2.83889
lowerneck -3.72646 -6.44562 -0.212435
upperneck 10.8269 -9.49808 3.53211
head 4.44666 -4.6927 0.723437
rclavicle -1.27222e-014 -7.95139e-015
rhumerus -34.2948 -18.1508 -78.9175
rradius 28.3058
rwrist -0.158451
rhand -9.67193 -53.1355
rfingers 7.12502
rthumb 16.2995 -82.4704
lclavicle -1.27222e-014 -7.95139e-015
lhumerus -28.035 -2.21417 83.3897
lradius 22.9612
lwrist -3.76238
lhand -21.1841 -11.3291
lfingers 7.12502
lthumb 5.19659 18.5872
rfemur -22.2938 9.57521 18.18
rtibia 11.2574
rfoot -18.2461 -0.921777
rtoes -17.9145
lfemur -22.0155 -10.8463 -22.3433
ltibia 11.0129
lfoot -8.27465 -2.86505
ltoes -34.9726
571
root 3.51156 17.98 7.65625 -156.909 -3.62943 177.628
lowerback -28.6676 -2.55946 -7.14788
upperback -1.23885 -1.60519 -0.380026
thorax 13.9266 -1.41889 2.79812
lowerneck -3.73924 -6.37453 -0.199951
upperneck 10.9992 -9.41052 3.42702
head 4.50251 -4.65496 0.687399
rclavicle 5.2181e-015 4.21423e-014
rhumerus -34.5093 -18.2066 -78.853
rradius 28.2246
rwrist -0.169187
rhand -9.64943 -53.5453
rfingers 7.12502
rthumb 16.3212 -82.8785
lclavicle 5.2181e-015 4.21423e-014
lhumerus -28.1966 -2.11468 83.344
lradius 22.8328
lwrist -3.80147
lhand -20.8792 -11.4575
lfingers 7.12502
lthumb 5.49102 18.4514
rfemur -22.3368 9.49731 18.2734
rtibia 11.2304
rfoot -18.3048 -0.884003
rtoes -18.3051
lfemur -22.0914 -10.8212 -22.243
ltibia 11.0201
lfoot -8.34136 -2.94014
ltoes -34.8587
572
root 3.513 17.9758 7.64517 -156.777 -3.61812 177.677
lowerback -28.8748 -2.57458 -7.10834
upperback -1.34376 -1.64986 -0.373722
thorax 13.9034 -1.44328 2.7593
lowerneck -3.76301 -6.29268 -0.210995
upperneck 11.0654 -9.30024 3.38615
head 4.5269 -4.60276 0.67961
rclavicle -9.93923e-017 -3.57812e-015
rhumerus -34.6237 -18.2689 -78.8236
rradius 28.1511
rwrist -0.0578149
rhand -9.58625 -53.9905
rfingers 7.12502
rthumb 16.382 -83.3187
lclavicle -9.93923e-017 -3.57812e-015
lhumerus -28.3658 -2.23894 83.3549
lradius 22.8479
lwrist -3.64278
lhand -20.6576 -11.9181
lfingers 7.12502
lthumb 5.70496 17.9851
rfemur -22.4348 9.49778 18.3316
rtibia 11.22
rfoot -18.397 -0.744628
rtoes -18.1409
lfemur -22.1916 -10.7238 -22.1815
ltibia 11.0167
lfoot -8.3972 -2.98523
ltoes -34.7533
573
root 3.51373 17.9729 7.63189 -156.78 -3.62883 177.676
lowerback -29.0325 -2.61867 -7.11621
upperback -1.34329 -1.69899 -0.363173
thorax 13.9811 -1.4702 2.75035
lowerneck -3.89425 -6.3319 -0.184314
upperneck 11.0606 -9.34157 3.32437
head 4.54678 -4.62037 0.647518
rclavicle -3.62782e-015 1.55052e-014
rhumerus -34.6311 -18.3846 -78.7715
rradius 28.0697
rwrist 0.163785
rhand -9.46375 -54.2564
rfingers 7.12502
rthumb 16.5 -83.5748
lclavicle -3.62782e-015 1.55052e-014
lhumerus -28.3974 -2.26332 83.4058
lradius 22.8077
lwrist -3.59938
lhand -20.8929 -11.936
lfingers 7.12502
lthumb 5.47778 17.9732
rfemur -22.3216 9.66039 18.3405
rtibia 11.1312
rfoot -18.4415 -0.897661
rtoes -18.0866
lfemur -22.1104 -10.6425 -22.2129
ltibia 10.978
lfoot -8.41098 -3.05292
ltoes -34.4784
574
root 3.51648 17.9721 7.62005 -156.825 -3.64784 177.645
lowerback -29.1429 -2.66583 -7.15404
upperback -1.30727 -1.7358 -0.36764
thorax 14.0772 -1.49156 2.74739
lowerneck -4.08874 -6.4207 -0.0824
upperneck 11.0767 -9.45046 3.21024
head 4.58071 -4.66897 0.578617
rclavicle -3.67752e-015 1.19271e-014
rhumerus -34.5904 -18.4058 -78.7825
rradius 28.0381
rwrist 0.2192
rhand -9.36919 -54.3245
rfingers 7.12502
rthumb 16.591 -83.6353
lclavicle -3.67752e-015 1.19271e-014
lhumerus -28.3636 -2.31664 83.4574
lradius 22.7228
lwrist -3.50724
lhand -21.1669 -11.785
lfingers 7.12502
lthumb 5.21319 18.1309
rfemur -22.2042 9.66538 18.3537
rtibia 11.1191
rfoot -18.4439 -1.17494
rtoes -18.9184
lfemur -21.9894 -10.6097 -22.251
ltibia 10.9311
lfoot -8.40475 -3.12203
ltoes -34.1174
575
root 3.52 17.9712 7.60946 -156.851 -3.65261 177.587
lowerback -29.2064 -2.70576 -7.22382
upperback -1.32405 -1.76356 -0.394166
thorax 14.0888 -1.51024 2.74262
lowerneck -4.25374 -6.41819 0.0854971
upperneck 11.1796 -9.43788 2.9877
head 4.62723 -4.66154 0.468663
rclavicle -6.16232e-015 -9.93923e-015
rhumerus -34.6533 -18.4407 -78.7811
rradius 28.0222
rwrist 0.267813
rhand -9.37412 -54.2109
rfingers 7.12502
rthumb 16.5863 -83.5221
lclavicle -6.16232e-015 -9.93923e-015
lhumerus -28.4091 -2.267 83.4282
lradius 22.6233
lwrist -3.54607
lhand -21.1484 -11.7856
lfingers 7.12502
lthumb 5.23109 18.1299
rfemur -22.1215 9.6161 18.3171
rtibia 11.1088
rfoot -18.4383 -1.22766
rtoes -18.7268
lfemur -21.8842 -10.6068 -22.3058
ltibia 10.8733
lfoot -8.38395 -3.19185
ltoes -33.9756
576
root 3.5231 17.9728 7.59624 -157.047 -3.72316 177.528
lowerback -29.0393 -2.75885 -7.30503
upperback -1.36307 -1.82072 -0.420016
thorax 13.9729 -1.53727 2.74144
lowerneck -4.23219 -6.35023 0.0536701
upperneck 11.1791 -9.35959 3.09249
head 4.62982 -4.6214 0.513992
rclavicle 1.71452e-014 -2.10712e-014
rhumerus -34.7684 -18.7508 -78.6613
rradius 27.8954
rwrist 0.55516
rhand -9.44126 -54.219
rfingers 7.12502
rthumb 16.5216 -83.5356
lclavicle 1.71452e-014 -2.10712e-014
lhumerus -28.4836 -2.00382 83.3188
lradius 22.4424
lwrist -3.81842
lhand -21.1872 -11.6366
lfingers 7.12502
lthumb 5.1936 18.2797
rfemur -21.8033 9.61926 18.3073
rtibia 11.0399
rfoot -18.4584 -1.23249
rtoes -17.9966
lfemur -21.5681 -10.5692 -22.3896
ltibia 10.7848
lfoot -8.40261 -3.33244
ltoes -34.1977
577
root 3.52527 17.9748 7.58441 -157.225 -3.78282 177.589
lowerback -28.9341 -2.80963 -7.27575
upperback -1.3558 -1.90623 -0.363231
thorax 13.9446 -1.57193 2.75792
lowerneck -4.19437 -6.24707 -0.194159
upperneck 10.9998 -9.21414 3.37026
head 4.58515 -4.54706 0.661641
rclavicle 2.5345e-015 -6.36111e-015
rhumerus -34.7158 -18.9207 -78.5411
rradius 27.7329
rwrist 0.737937
rhand -9.38339 -54.0811
rfingers 7.12502
rthumb 16.5774 -83.3931
lclavicle 2.5345e-015 -6.36111e-015
lhumerus -28.4634 -1.47917 83.2438
lradius 22.2266
lwrist -4.18291
lhand -21.2975 -11.3836
lfingers 7.12502
lthumb 5.08709 18.5353
rfemur -21.5425 9.5193 18.4593
rtibia 11.0193
rfoot -18.4846 -1.16913
rtoes -18.1136
lfemur -21.3081 -10.5396 -22.3274
ltibia 10.7345
lfoot -8.49703 -3.35397
ltoes -34.7608
578
root 3.52585 17.9747 7.57611 -157.23 -3.79627 177.691
lowerback -29.0317 -2.83386 -7.19956
upperback -1.35156 -1.96418 -0.292244
thorax 14.0022 -1.59647 2.76806
lowerneck -4.25641 -6.16474 -0.271436
upperneck 10.8702 -9.07865 3.3982
head 4.55304 -4.47811 0.692172
rclavicle 5.11871e-015 -7.95139e-015
rhumerus -34.6678 -18.8889 -78.478
rradius 27.673
rwrist 0.713501
rhand -9.14828 -53.79
rfingers 7.12502
rthumb 16.8037 -83.0829
lclavicle 5.11871e-015 -7.95139e-015
lhumerus -28.4022 -0.965254 83.1908
lradius 22.0003
lwrist -4.5588
lhand -21.2985 -11.2691
lfingers 7.12502
lthumb 5.08617 18.6498
rfemur -21.5332 9.47446 18.6123
rtibia 11.0823
rfoot -18.5693 -1.00674
rtoes -18.1959
lfemur -21.2908 -10.5921 -22.1897
ltibia 10.7603
lfoot -8.50581 -3.27407
ltoes -34.4561
579
root 3.52534 17.9728 7.5664 -157.184 -3.82777 177.692
lowerback -29.1867 -2.83764 -7.1998
upperback -1.3662 -1.96258 -0.310052
thorax 14.0544 -1.59948 2.74363
lowerneck -4.29379 -6.16078 -0.187017
upperneck 10.8139 -9.07762 3.42662
head 4.53688 -4.47236 0.686975
rclavicle -9.93923e-016 -3.29983e-014
rhumerus -34.7299 -18.9441 -78.4697
rradius 27.6692
rwrist 0.776899
rhand -9.04343 -53.7857
rfingers 7.12502
rthumb 16.9046 -83.07
lclavicle -9.93923e-016 -3.29983e-014
lhumerus -28.3646 -0.938105 83.1452
lradius 21.8157
lwrist -4.68954
lhand -21.3254 -11.3597
lfingers 7.12502
lthumb 5.06013 18.5599
rfemur -21.5599 9.36597 18.644
rtibia 11.137
rfoot -18.6933 -0.728635
rtoes -17.867
lfemur -21.2958 -10.6507 -22.1866
ltibia 10.7466
lfoot -8.41674 -3.23647
ltoes -34.0041
